<svg version="1.1" id="Layer_1" xmlns="http://www.w3.org/2000/svg" xmlns:xlink="http://www.w3.org/1999/xlink" x="0px" y="0px"
	 width="100%" viewBox="0 0 67 66" enable-background="new 0 0 67 66" xml:space="preserve">
<path fill="#FAFEFC" opacity="1.000000" stroke="none" 
	d="
M30.000000,67.000000 
	C20.438927,67.000000 10.877852,67.000000 1.000000,67.000000 
	C1.000000,62.989994 1.000000,58.971657 1.215012,54.484100 
	C1.430023,54.014874 1.860289,54.011295 2.035567,54.223106 
	C2.471505,53.684116 2.732164,52.933315 3.262325,52.068657 
	C3.743719,51.636501 3.955610,51.318203 4.519411,51.086872 
	C5.568032,53.488453 6.264744,55.803059 6.570885,58.069538 
	C5.139084,58.143105 4.097856,58.264801 3.056628,58.386497 
	C2.905701,58.898514 2.754775,59.410530 2.603848,59.922546 
	C5.101809,60.950771 7.539805,62.635002 10.110276,62.869965 
	C15.378681,63.351540 20.718145,63.055729 26.370222,63.135910 
	C27.808060,64.461227 28.904030,65.730614 30.000000,67.000000 
z"/>
<path fill="#FAFFFC" opacity="1.000000" stroke="none" 
	d="
M68.000000,58.000000 
	C68.000000,60.969131 68.000000,63.938263 68.000000,67.000000 
	C56.979244,67.000000 45.958282,67.000000 34.332146,66.680466 
	C34.473850,65.524559 35.220722,64.688179 36.337837,63.812859 
	C37.821960,63.287472 38.935844,62.801037 40.463295,62.544556 
	C48.915352,62.116402 56.953838,61.458290 65.317719,60.795830 
	C66.428741,59.860992 67.214371,58.930496 68.000000,58.000000 
z"/>
<path fill="#F3FEFA" opacity="1.000000" stroke="none" 
	d="
M68.000000,4.000000 
	C68.000000,15.020894 68.000000,26.041788 67.649574,37.470955 
	C65.588623,36.917088 63.878094,35.954945 62.093369,34.658649 
	C62.069370,33.873928 62.119579,33.423359 62.420982,32.678936 
	C62.778969,30.259008 62.885757,28.132936 63.355083,26.004604 
	C64.442703,25.998741 65.167786,25.995138 65.925529,26.365374 
	C65.931458,27.488243 65.904716,28.237272 65.590408,29.036722 
	C65.548012,29.718914 65.793167,30.350687 66.347687,30.705746 
	C66.731842,26.259485 66.806656,22.089939 66.921021,17.585403 
	C66.835358,16.165380 66.710152,15.080347 66.593964,13.593327 
	C66.221703,13.089312 65.840446,12.987283 65.459183,12.885254 
	C65.628487,13.300529 65.797798,13.715805 65.974121,14.518137 
	C66.042580,15.934839 66.104019,16.964483 66.071915,17.972542 
	C65.978363,17.950954 65.787300,17.970089 65.432137,17.879837 
	C65.036667,15.033777 64.996368,12.277971 65.448715,9.790514 
	C66.208481,9.797111 66.475601,9.535357 66.836975,9.055804 
	C66.612419,8.610203 66.293602,8.382401 65.757141,8.087383 
	C65.539497,8.020169 65.084091,8.032956 64.752510,7.893456 
	C63.255390,6.779973 62.089848,5.805991 60.929955,4.613416 
	C60.935600,4.394822 61.104073,3.991241 61.460075,3.949188 
	C63.877388,3.938090 65.938690,3.969045 68.000000,4.000000 
z"/>
<path fill="#F3FEFA" opacity="1.000000" stroke="none" 
	d="
M19.000000,1.000000 
	C32.020893,1.000000 45.041790,1.000000 58.531525,1.304422 
	C59.002155,2.014738 59.003941,2.420630 58.543091,2.904418 
	C52.428905,3.091383 46.777363,3.200453 40.725456,3.205127 
	C39.228127,3.137019 38.131161,3.173306 36.643673,3.117153 
	C35.190113,3.069251 34.127075,3.113789 32.621078,3.095373 
	C30.091320,3.089030 28.004519,3.145639 25.559223,3.147253 
	C24.477146,3.119550 23.753567,3.146844 22.720047,3.152750 
	C22.289883,3.709694 22.169657,4.288024 21.874805,5.133140 
	C20.798897,5.269075 19.897617,5.138225 18.998058,4.636271 
	C18.979311,3.525420 18.958841,2.785674 18.963316,1.785008 
	C18.992172,1.349392 18.996086,1.174696 19.000000,1.000000 
z"/>
<path fill="#E7FFF6" opacity="1.000000" stroke="none" 
	d="
M62.167568,34.992802 
	C63.878094,35.954945 65.588623,36.917088 67.649574,37.939613 
	C68.000000,39.388889 68.000000,40.777779 67.623886,42.482288 
	C66.811951,43.872025 66.376129,44.946136 65.590446,45.976570 
	C64.120415,45.603279 63.000233,45.273666 62.033882,44.606979 
	C62.180996,41.177536 62.174282,38.085167 62.167568,34.992802 
z"/>
<path fill="#0D6C3A" opacity="1.000000" stroke="none" 
	d="
M35.967594,63.851807 
	C35.220722,64.688179 34.473850,65.524559 33.863487,66.680466 
	C32.933331,67.000000 31.866661,67.000000 30.399996,67.000000 
	C28.904030,65.730614 27.808060,64.461227 26.374790,62.953915 
	C26.037491,62.715988 26.057922,62.352425 26.477703,62.306152 
	C27.740242,62.156097 28.583000,62.052315 29.633606,61.835632 
	C30.416363,61.498093 30.991276,61.273457 31.861908,61.237469 
	C32.611591,61.500332 33.065563,61.574547 33.744644,61.796066 
	C34.322945,62.025600 34.676125,62.107834 35.125809,62.409447 
	C35.470734,63.036488 35.719166,63.444145 35.967594,63.851807 
z"/>
<path fill="#FAFEFC" opacity="1.000000" stroke="none" 
	d="
M59.005730,2.826523 
	C59.003941,2.420630 59.002155,2.014738 59.000183,1.304422 
	C61.666668,1.000000 64.338234,0.922008 66.994415,1.088912 
	C67.368164,1.112396 67.666664,2.333333 68.000000,3.500000 
	C65.938690,3.969045 63.877388,3.938090 61.303665,3.671985 
	C60.196075,3.233397 59.600903,3.029961 59.005730,2.826523 
z"/>
<path fill="#F4FFF9" opacity="1.000000" stroke="none" 
	d="
M1.000000,5.000000 
	C1.000000,3.729262 1.000000,2.458525 1.000000,1.000000 
	C3.000756,1.000000 5.003907,1.000000 7.476956,1.206933 
	C7.946855,1.413865 7.913006,1.829754 7.611773,1.913832 
	C6.787715,2.298076 6.264890,2.598241 5.428217,2.887031 
	C4.132047,3.606713 3.149723,4.337771 1.875928,5.045189 
	C1.389639,5.014366 1.194819,5.007183 1.000000,5.000000 
z"/>
<path fill="#38996E" opacity="1.000000" stroke="none" 
	d="
M1.000000,38.000000 
	C1.000000,33.310745 1.000000,28.621489 1.232378,23.454529 
	C1.464756,22.976822 1.927324,22.926161 1.974676,23.261574 
	C2.033601,24.047546 2.045174,24.498106 2.034453,25.416557 
	C1.964978,29.955938 1.917795,34.027424 1.652083,38.081894 
	C1.433554,38.064877 1.000000,38.000000 1.000000,38.000000 
z"/>
<path fill="#71C399" opacity="1.000000" stroke="none" 
	d="
M1.927324,22.926161 
	C1.927324,22.926161 1.464756,22.976822 1.232378,22.988411 
	C1.000000,19.969406 1.000000,16.938814 1.217649,13.438540 
	C1.435297,12.968860 1.870910,12.942492 1.926975,13.396427 
	C1.964468,16.875629 1.945896,19.900896 1.927324,22.926161 
z"/>
<path fill="#106A3E" opacity="1.000000" stroke="none" 
	d="
M68.000000,46.000000 
	C68.000000,49.030594 68.000000,52.061188 67.593765,55.500561 
	C66.916161,55.884583 66.644783,55.859825 66.376923,55.481415 
	C66.439682,54.427277 66.498917,53.726791 66.724327,52.704819 
	C66.845871,51.911114 66.801247,51.438900 66.768280,50.562805 
	C66.715431,48.815685 66.650925,47.472446 66.940201,46.101166 
	C67.529320,46.048756 67.764656,46.024380 68.000000,46.000000 
z"/>
<path fill="#216A48" opacity="1.000000" stroke="none" 
	d="
M66.373405,55.835068 
	C66.644783,55.859825 66.916161,55.884583 67.593765,55.954670 
	C68.000000,56.444447 68.000000,56.888889 68.000000,57.666672 
	C67.214371,58.930496 66.428741,59.860992 65.292267,60.510403 
	C64.624992,59.540340 64.308556,58.851364 64.302620,58.087852 
	C65.199875,57.287231 65.786636,56.561150 66.373405,55.835068 
z"/>
<path fill="#E3FFF7" opacity="1.000000" stroke="none" 
	d="
M1.860289,54.011295 
	C1.860289,54.011295 1.430023,54.014874 1.215012,54.007439 
	C1.000000,51.629444 1.000000,49.258884 1.211446,46.470253 
	C1.422892,46.052174 1.848977,46.048740 1.914955,46.407692 
	C2.039036,47.491383 2.097139,48.216122 2.097638,49.313869 
	C2.068943,50.438808 2.097852,51.190746 2.066453,52.285751 
	C1.957525,53.089645 1.908907,53.550468 1.860289,54.011295 
z"/>
<path fill="#A1EBC8" opacity="1.000000" stroke="none" 
	d="
M7.913006,1.829754 
	C7.913006,1.829754 7.946855,1.413865 7.973427,1.206933 
	C9.714187,1.000000 11.428372,1.000000 13.577816,1.207927 
	C14.013072,1.415854 14.063534,1.828842 13.627968,1.894578 
	C11.432603,1.916794 9.672805,1.873274 7.913006,1.829754 
z"/>
<path fill="#408865" opacity="1.000000" stroke="none" 
	d="
M68.000000,45.625000 
	C67.764656,46.024380 67.529320,46.048756 66.772079,46.113075 
	C66.250168,46.153015 65.940300,46.020252 65.940300,46.020252 
	C66.376129,44.946136 66.811951,43.872025 67.623886,42.898956 
	C68.000000,43.750000 68.000000,44.500000 68.000000,45.625000 
z"/>
<path fill="#DFFFFA" opacity="1.000000" stroke="none" 
	d="
M14.063534,1.828842 
	C14.063534,1.828842 14.013072,1.415854 14.006536,1.207927 
	C15.388997,1.000000 16.777994,1.000000 18.583496,1.000000 
	C18.996086,1.174696 18.992172,1.349392 18.640873,1.781567 
	C17.646360,2.002767 16.999233,1.966488 15.968911,1.964801 
	C15.078322,1.942543 14.570928,1.885692 14.063534,1.828842 
z"/>
<path fill="#A7E7C6" opacity="1.000000" stroke="none" 
	d="
M1.870910,12.942492 
	C1.870910,12.942492 1.435297,12.968860 1.217649,12.984430 
	C1.000000,11.933213 1.000000,10.866426 1.210144,9.376850 
	C1.420288,8.954060 1.843037,8.960043 1.909944,9.354307 
	C1.941538,10.813210 1.906224,11.877851 1.870910,12.942492 
z"/>
<path fill="#DBFFF6" opacity="1.000000" stroke="none" 
	d="
M1.843037,8.960043 
	C1.843037,8.960043 1.420288,8.954060 1.210144,8.977030 
	C1.000000,7.933213 1.000000,6.866426 1.000000,5.399819 
	C1.194819,5.007183 1.389639,5.014366 1.881301,5.369637 
	C2.189971,6.148039 2.201799,6.578353 2.118357,7.327159 
	C1.963071,8.083781 1.903054,8.521913 1.843037,8.960043 
z"/>
<path fill="#9EE4C4" opacity="1.000000" stroke="none" 
	d="
M1.848977,46.048740 
	C1.848977,46.048740 1.422892,46.052174 1.211446,46.026085 
	C1.000000,44.933430 1.000000,43.866863 1.205103,42.438538 
	C1.410207,42.076786 1.827529,42.079628 1.891186,42.472679 
	C1.919554,43.926735 1.884265,44.987736 1.848977,46.048740 
z"/>
<path fill="#64C395" opacity="1.000000" stroke="none" 
	d="
M1.827529,42.079628 
	C1.827529,42.079628 1.410207,42.076786 1.205103,42.038391 
	C1.000000,40.933281 1.000000,39.866562 1.000000,38.399921 
	C1.000000,38.000000 1.433554,38.064877 1.693730,38.072731 
	C1.953906,38.080582 1.996957,38.009731 1.990751,38.416290 
	C1.932206,39.908440 1.879867,40.994034 1.827529,42.079628 
z"/>
<path fill="#FCFEFD" opacity="1.000000" stroke="none" 
	d="
M6.961456,58.117668 
	C6.264744,55.803059 5.568032,53.488453 4.441126,50.777061 
	C3.691094,49.911835 3.371255,49.443382 3.027799,48.558266 
	C3.064770,46.754360 3.125359,45.367123 3.418640,43.783073 
	C4.447045,42.686298 5.242757,41.786331 6.430021,40.941296 
	C9.866007,42.041496 12.910442,43.086765 16.124800,44.462719 
	C17.522329,44.810623 18.749939,44.827843 20.196674,44.924477 
	C20.415804,45.003891 20.879642,45.050270 20.967678,45.310913 
	C21.401369,45.392780 21.747025,45.214008 22.328142,45.005608 
	C22.563604,44.975975 23.016258,44.833195 23.410721,44.930359 
	C25.229185,45.582890 26.653185,46.138256 28.897074,47.013382 
	C27.892403,50.894714 26.947830,54.543873 25.571571,58.112591 
	C23.712980,58.229118 22.282978,58.612446 20.859735,58.588810 
	C16.225647,58.511837 11.594027,58.286133 6.961456,58.117668 
z"/>
<path fill="#106C3E" opacity="1.000000" stroke="none" 
	d="
M6.570885,58.069538 
	C11.594027,58.286133 16.225647,58.511837 20.859735,58.588810 
	C22.282978,58.612446 23.712980,58.229118 25.591618,58.375793 
	C26.324516,59.132217 26.605684,59.544994 26.762901,60.255161 
	C26.445274,61.152508 26.251600,61.752468 26.057924,62.352425 
	C26.057922,62.352425 26.037491,62.715988 26.032923,62.897984 
	C20.718145,63.055729 15.378681,63.351540 10.110276,62.869965 
	C7.539805,62.635002 5.101809,60.950771 2.603848,59.922546 
	C2.754775,59.410530 2.905701,58.898514 3.056628,58.386497 
	C4.097856,58.264801 5.139084,58.143105 6.570885,58.069538 
z"/>
<path fill="#3F755D" opacity="1.000000" stroke="none" 
	d="
M3.051417,48.974934 
	C3.371255,49.443382 3.691094,49.911835 4.089217,50.690094 
	C3.955610,51.318203 3.743719,51.636501 3.349214,51.965736 
	C3.166601,51.976669 3.093797,51.717194 3.058291,51.378960 
	C2.999007,50.355492 2.975229,49.670261 2.975558,48.973747 
	C2.999665,48.962471 3.051417,48.974934 3.051417,48.974934 
z"/>
<path fill="#85AE96" opacity="1.000000" stroke="none" 
	d="
M2.035567,54.223106 
	C1.908907,53.550468 1.957525,53.089645 2.315209,52.259499 
	C2.780782,51.832520 2.937289,51.774857 3.093797,51.717194 
	C3.093797,51.717194 3.166601,51.976669 3.079713,52.079590 
	C2.732164,52.933315 2.471505,53.684116 2.035567,54.223106 
z"/>
<path fill="#106B3E" opacity="1.000000" stroke="none" 
	d="
M63.992123,58.162384 
	C64.308556,58.851364 64.624992,59.540340 64.966873,60.514748 
	C56.953838,61.458290 48.915352,62.116402 40.426987,62.322968 
	C39.504704,61.586475 39.032295,61.301533 38.361034,60.785717 
	C38.117161,60.356747 38.072132,60.158657 38.027554,59.991573 
	C38.028004,60.022583 37.966904,60.033257 38.328682,60.052361 
	C39.169434,59.376442 39.648403,58.681412 40.419846,58.165482 
	C42.136818,62.046902 45.554665,60.590065 47.938869,60.646080 
	C52.011284,60.741753 56.107681,59.816517 60.453743,59.178539 
	C61.806362,58.745453 62.899242,58.453918 63.992123,58.162384 
z"/>
<path fill="#24734B" opacity="1.000000" stroke="none" 
	d="
M38.559883,61.016594 
	C39.032295,61.301533 39.504704,61.586475 40.013420,62.093010 
	C38.935844,62.801037 37.821960,63.287472 36.337837,63.812859 
	C35.719166,63.444145 35.470734,63.036488 35.200058,62.106651 
	C35.146683,61.379002 35.115555,61.173531 35.275623,60.955120 
	C35.466820,60.942177 35.849976,60.956520 35.916168,61.222790 
	C36.336018,61.309372 36.689682,61.129684 37.051914,60.979301 
	C37.060486,61.008602 37.013939,61.048130 37.401268,61.081688 
	C38.045692,61.082363 38.302788,61.049480 38.559883,61.016594 
z"/>
<path fill="#037238" opacity="1.000000" stroke="none" 
	d="
M20.879642,45.050270 
	C20.879642,45.050270 20.415804,45.003891 19.997631,44.704826 
	C18.371264,44.314522 17.163071,44.223278 15.954878,44.132034 
	C12.910442,43.086765 9.866007,42.041496 6.264098,40.583668 
	C5.418491,38.120068 5.130358,36.069031 4.947537,33.747353 
	C5.366346,33.263542 5.679842,33.050365 6.361925,32.777355 
	C6.762563,31.487024 6.794613,30.256533 6.992034,28.697395 
	C8.051897,27.723207 9.183073,27.250126 9.800541,26.402725 
	C12.714401,22.403793 14.851086,17.552132 18.498032,14.457979 
	C21.844904,11.618418 26.766022,10.634353 31.415302,8.905999 
	C34.559189,9.265867 37.281315,9.552509 40.350578,10.013981 
	C46.800343,11.358488 51.221840,15.407216 56.012863,19.363289 
	C57.818398,21.780466 59.489601,23.887503 61.087273,26.350201 
	C61.399086,28.794838 61.784435,30.883814 62.169785,32.972790 
	C62.119579,33.423359 62.069370,33.873928 62.093369,34.658649 
	C62.174282,38.085167 62.180996,41.177536 61.605988,44.630104 
	C57.502411,44.951675 53.156441,46.100693 53.914162,39.578861 
	C53.691383,36.755943 53.392773,34.358120 53.040611,31.635715 
	C52.929932,30.877962 52.872807,30.444786 52.806808,29.665386 
	C49.862907,27.605291 46.927883,25.891417 43.672134,24.025320 
	C41.565956,22.864548 39.780502,21.855999 37.943771,20.496487 
	C36.307293,17.763794 34.711773,16.191170 33.035465,20.048050 
	C33.024387,20.012388 33.098450,20.022045 32.779209,20.295456 
	C32.585674,28.040152 32.711380,35.511433 32.912735,43.201340 
	C32.988384,43.419960 33.044270,43.879253 33.108162,44.106155 
	C33.319008,44.624798 33.538837,44.843189 33.903175,45.440002 
	C34.044182,49.222862 34.113548,52.553951 34.140259,56.238663 
	C34.054501,57.062290 34.011398,57.532299 33.995712,58.010216 
	C34.023129,58.018116 34.049107,57.967533 33.704113,57.948502 
	C32.904381,57.947662 32.449638,57.965858 31.656960,57.975163 
	C30.871609,57.914536 30.424194,57.862793 29.823540,57.491455 
	C29.780006,54.599670 29.982149,52.027424 29.980404,49.455307 
	C29.976639,43.903954 28.791405,43.147835 23.016258,44.833195 
	C23.016258,44.833195 22.563604,44.975975 22.024607,44.994587 
	C21.283621,45.025555 21.081633,45.037914 20.879642,45.050270 
z"/>
<path fill="#FAFEFC" opacity="1.000000" stroke="none" 
	d="
M55.878536,19.053148 
	C51.221840,15.407216 46.800343,11.358488 40.283821,9.684079 
	C38.896893,7.849156 37.923862,6.518965 37.352551,5.113936 
	C38.839836,5.083915 39.925400,5.128730 41.110245,5.316915 
	C41.487667,5.363913 41.765820,5.267542 42.051910,5.069405 
	C42.059849,4.967638 41.943336,4.799998 42.256630,4.844398 
	C42.981892,4.797901 43.393860,4.707002 44.143185,4.761909 
	C44.967934,4.930181 45.455334,4.952646 46.389870,4.993211 
	C49.888462,4.735147 52.939911,4.458982 56.348701,4.121881 
	C58.112129,4.317966 59.518219,4.574988 60.924305,4.832009 
	C62.089848,5.805991 63.255390,6.779973 64.711739,8.264989 
	C64.987045,9.024737 64.971550,9.273452 64.956070,9.522165 
	C64.996368,12.277971 65.036667,15.033777 65.506721,18.321852 
	C65.921936,21.233259 65.907402,23.612396 65.892868,25.991535 
	C65.167786,25.995138 64.442703,25.998741 63.106762,26.003391 
	C62.495903,26.004438 61.999084,26.000898 61.994484,25.625116 
	C61.300705,21.854460 60.212379,18.853262 55.878536,19.053148 
z"/>
<path fill="#295E41" opacity="1.000000" stroke="none" 
	d="
M60.929955,4.613416 
	C59.518219,4.574988 58.112129,4.317966 55.904747,4.040582 
	C52.112934,4.074524 49.122410,4.128829 45.825741,4.102818 
	C44.948338,4.220368 44.377087,4.418236 43.805832,4.616104 
	C43.393860,4.707002 42.981892,4.797901 42.187271,4.641944 
	C41.578358,4.033234 41.352089,3.671378 41.125820,3.309523 
	C46.777363,3.200453 52.428905,3.091383 58.543087,2.904418 
	C59.600903,3.029961 60.196075,3.233397 60.947662,3.714038 
	C61.104073,3.991241 60.935600,4.394822 60.929955,4.613416 
z"/>
<path fill="#ADE4C9" opacity="1.000000" stroke="none" 
	d="
M65.925529,26.365374 
	C65.907402,23.612396 65.921936,21.233259 65.861885,18.412106 
	C65.787300,17.970089 65.978363,17.950954 66.251190,17.961723 
	C66.524010,17.972492 66.881470,17.920393 66.881470,17.920393 
	C66.806656,22.089939 66.731842,26.259485 66.323334,30.372896 
	C65.952415,29.873276 65.915199,29.429789 65.877975,28.986303 
	C65.904716,28.237272 65.931458,27.488243 65.925529,26.365374 
z"/>
<path fill="#E7FFF6" opacity="1.000000" stroke="none" 
	d="
M61.999084,26.000898 
	C61.999084,26.000898 62.495903,26.004438 62.744225,26.005650 
	C62.885757,28.132936 62.778969,30.259008 62.420982,32.678936 
	C61.784435,30.883814 61.399086,28.794838 61.296837,26.352335 
	C61.579937,25.998808 61.999084,26.000898 61.999084,26.000898 
z"/>
<path fill="#7DBE9E" opacity="1.000000" stroke="none" 
	d="
M66.921021,17.585403 
	C66.881470,17.920393 66.524010,17.972492 66.344734,17.983311 
	C66.104019,16.964483 66.042580,15.934839 66.114380,14.419547 
	C66.247620,13.933900 66.584953,13.995313 66.584953,13.995313 
	C66.710152,15.080347 66.835358,16.165380 66.921021,17.585403 
z"/>
<path fill="#E7FFF6" opacity="1.000000" stroke="none" 
	d="
M65.590408,29.036722 
	C65.915199,29.429789 65.952415,29.873276 66.013977,30.649611 
	C65.793167,30.350687 65.548012,29.718914 65.590408,29.036722 
z"/>
<path fill="#327A59" opacity="1.000000" stroke="none" 
	d="
M66.107361,14.032490 
	C65.797798,13.715805 65.628487,13.300529 65.459183,12.885254 
	C65.840446,12.987283 66.221703,13.089312 66.593964,13.593327 
	C66.584953,13.995313 66.247620,13.933900 66.107361,14.032490 
z"/>
<path fill="#327A59" opacity="1.000000" stroke="none" 
	d="
M65.448708,9.790514 
	C64.971550,9.273452 64.987045,9.024737 65.043320,8.404490 
	C65.084091,8.032956 65.539497,8.020169 65.893265,8.405467 
	C66.412277,8.951712 66.577507,9.112658 66.742729,9.273603 
	C66.475601,9.535357 66.208481,9.797111 65.448708,9.790514 
z"/>
<path fill="#4A9271" opacity="1.000000" stroke="none" 
	d="
M66.836975,9.055804 
	C66.577507,9.112658 66.412277,8.951712 66.110916,8.472681 
	C66.293602,8.382401 66.612419,8.610203 66.836975,9.055804 
z"/>
<path fill="#FBFEFC" opacity="1.000000" stroke="none" 
	d="
M30.993542,8.832773 
	C26.766022,10.634353 21.844904,11.618418 18.498032,14.457979 
	C14.851086,17.552132 12.714401,22.403793 9.800541,26.402725 
	C9.183073,27.250126 8.051897,27.723207 6.756832,28.936565 
	C6.235285,30.615318 6.114312,31.726255 5.993339,32.837193 
	C5.679842,33.050365 5.366346,33.263542 4.729853,33.852177 
	C3.992894,34.475010 3.578932,34.722382 3.094904,34.574348 
	C3.075601,33.112598 3.126363,32.046253 3.421399,30.689135 
	C3.500495,27.936228 3.335317,25.474096 3.104761,22.597103 
	C3.084800,20.786259 3.130217,19.390270 3.317398,17.899164 
	C3.364896,17.537907 3.270630,17.271769 3.107727,16.631081 
	C3.089849,15.500214 3.140609,14.743894 3.384787,13.831381 
	C3.445667,13.121622 3.313128,12.568056 3.100608,11.602749 
	C3.010623,9.792952 3.000620,8.394894 3.297009,6.844321 
	C4.906632,5.524062 6.209865,4.356318 7.752264,3.239499 
	C7.991433,3.290424 8.476519,3.230137 8.476519,3.230137 
	C8.476519,3.230137 8.963092,3.276911 9.067745,3.422690 
	C9.461207,3.455553 9.750016,3.342635 10.466528,3.182846 
	C12.609971,3.224279 14.325713,3.312584 16.107868,3.711459 
	C17.114969,4.350478 18.055653,4.678926 18.996338,5.007375 
	C19.897617,5.138225 20.798897,5.269075 22.122286,5.169140 
	C22.705891,4.896587 22.867386,4.854817 23.450083,4.899259 
	C25.588007,4.937057 27.304729,4.888644 29.346762,4.918334 
	C30.113373,5.051961 30.554674,5.107485 30.997654,5.529984 
	C30.997398,6.875564 30.995470,7.854168 30.993542,8.832773 
z"/>
<path fill="#337C56" opacity="1.000000" stroke="none" 
	d="
M40.725456,3.205128 
	C41.352089,3.671378 41.578358,4.033234 41.873981,4.597544 
	C41.943336,4.799998 42.059849,4.967638 41.793518,5.008686 
	C41.355114,5.091004 41.183041,5.132275 41.010967,5.173546 
	C39.925400,5.128730 38.839836,5.083915 37.343002,5.013844 
	C36.931736,4.988588 37.043205,4.821218 37.026081,4.637877 
	C37.008957,4.454537 36.994606,4.086541 37.004436,3.867301 
	C37.014267,3.648060 37.034195,3.209593 37.034195,3.209592 
	C38.131161,3.173306 39.228127,3.137019 40.725456,3.205128 
z"/>
<path fill="#337B58" opacity="1.000000" stroke="none" 
	d="
M29.021454,4.840231 
	C27.304729,4.888644 25.588007,4.937057 23.442940,4.626254 
	C23.019728,3.902738 23.024857,3.538437 23.029985,3.174137 
	C23.753567,3.146844 24.477146,3.119550 25.794161,3.390550 
	C27.274048,3.843928 28.160501,3.999012 29.035683,4.325095 
	C29.024412,4.496093 29.021454,4.840231 29.021454,4.840231 
z"/>
<path fill="#EEFFF9" opacity="1.000000" stroke="none" 
	d="
M18.998058,4.636271 
	C18.055653,4.678926 17.114969,4.350478 16.311340,3.370283 
	C16.416300,2.455761 16.384203,2.192985 16.352106,1.930208 
	C16.999233,1.966488 17.646360,2.002767 18.615929,2.042487 
	C18.958841,2.785674 18.979311,3.525420 18.998058,4.636271 
z"/>
<path fill="#7ABA9A" opacity="1.000000" stroke="none" 
	d="
M29.046955,4.154098 
	C28.160501,3.999012 27.274048,3.843928 26.152657,3.445546 
	C28.004519,3.145639 30.091320,3.089030 32.584923,3.278501 
	C32.991730,3.524582 32.913128,3.890434 32.528023,3.931677 
	C31.110933,4.033312 30.078943,4.093705 29.046955,4.154098 
z"/>
<path fill="#46936C" opacity="1.000000" stroke="none" 
	d="
M32.913128,3.890434 
	C32.913128,3.890434 32.991730,3.524582 33.027885,3.341455 
	C34.127075,3.113789 35.190113,3.069251 36.643673,3.117153 
	C37.034195,3.209593 37.014267,3.648060 36.597542,3.836091 
	C35.091587,3.979559 34.002357,3.934997 32.913128,3.890434 
z"/>
<path fill="#48906D" opacity="1.000000" stroke="none" 
	d="
M22.720047,3.152750 
	C23.024857,3.538437 23.019728,3.902738 23.021740,4.540043 
	C22.867386,4.854817 22.705891,4.896587 22.296913,4.902355 
	C22.169657,4.288024 22.289883,3.709694 22.720047,3.152750 
z"/>
<path fill="#FCFEFD" opacity="1.000000" stroke="none" 
	d="
M53.838333,40.003956 
	C53.156441,46.100693 57.502411,44.951675 61.452156,44.967178 
	C63.000233,45.273666 64.120415,45.603279 65.590446,45.976570 
	C65.940300,46.020252 66.250168,46.153015 66.418289,46.141109 
	C66.650925,47.472446 66.715431,48.815685 66.576332,50.717651 
	C66.434532,51.859688 66.496346,52.442997 66.558159,53.026310 
	C66.498917,53.726791 66.439682,54.427277 66.376923,55.481415 
	C65.786636,56.561150 65.199875,57.287231 64.302620,58.087852 
	C62.899242,58.453918 61.806362,58.745453 60.315102,59.177589 
	C59.916718,59.318192 59.644672,59.341618 59.399696,59.192841 
	C58.776711,59.084846 58.398693,59.125633 57.566246,59.092052 
	C54.543430,59.017689 51.975048,59.017689 49.875523,59.017689 
	C48.830883,53.719440 47.885818,48.926224 46.991905,43.762554 
	C48.027111,39.261383 49.011166,35.130661 50.183517,30.745346 
	C51.186440,30.331038 52.001060,30.171324 52.815681,30.011610 
	C52.872807,30.444786 52.929932,30.877962 52.742065,31.896023 
	C52.944153,34.988590 53.391243,37.496273 53.838333,40.003956 
z"/>
<path fill="#1E633E" opacity="1.000000" stroke="none" 
	d="
M29.976780,57.811054 
	C30.424194,57.862793 30.871609,57.914536 31.661499,58.370636 
	C31.858044,59.532936 31.712116,60.290874 31.566189,61.048813 
	C30.991276,61.273457 30.416363,61.498093 29.596291,61.439102 
	C29.221466,60.382671 29.091803,59.609863 29.090565,58.630157 
	C29.442457,58.183136 29.695055,57.979069 29.976780,57.811054 
z"/>
<path fill="#A1E8BD" opacity="1.000000" stroke="none" 
	d="
M31.861904,61.237465 
	C31.712116,60.290874 31.858044,59.532936 31.999435,58.379524 
	C32.449638,57.965858 32.904381,57.947662 33.783680,58.311432 
	C34.169891,59.431362 34.131546,60.169319 33.934555,61.080868 
	C33.775909,61.254456 33.519531,61.648758 33.519531,61.648758 
	C33.065563,61.574547 32.611591,61.500332 31.861904,61.237465 
z"/>
<path fill="#337453" opacity="1.000000" stroke="none" 
	d="
M28.962139,58.837059 
	C29.091803,59.609863 29.221466,60.382671 29.388447,61.552006 
	C28.583000,62.052315 27.740242,62.156097 26.477703,62.306152 
	C26.251600,61.752468 26.445274,61.152508 27.041237,60.153725 
	C27.949730,59.448952 28.455935,59.143005 28.962139,58.837059 
z"/>
<path fill="#A1E8BD" opacity="1.000000" stroke="none" 
	d="
M35.084427,60.968063 
	C35.115555,61.173531 35.146683,61.379002 35.103561,61.887276 
	C34.676125,62.107834 34.322945,62.025600 33.744644,61.796062 
	C33.519531,61.648758 33.775909,61.254456 34.181549,61.109158 
	C34.587193,60.963860 35.084427,60.968063 35.084427,60.968063 
z"/>
<path fill="#255E42" opacity="1.000000" stroke="none" 
	d="
M15.968911,1.964801 
	C16.384203,2.192985 16.416300,2.455761 16.244925,3.059713 
	C14.325713,3.312584 12.609971,3.224279 10.193365,3.099448 
	C9.316031,3.134252 9.139562,3.205581 8.963092,3.276911 
	C8.963092,3.276911 8.476519,3.230137 8.476519,3.230137 
	C8.476519,3.230137 7.991433,3.290424 7.310870,3.155756 
	C6.334226,2.980194 6.038145,2.939301 5.742064,2.898407 
	C6.264890,2.598241 6.787715,2.298076 7.611773,1.913832 
	C9.672805,1.873274 11.432603,1.916794 13.627968,1.894578 
	C14.570928,1.885692 15.078322,1.942543 15.968911,1.964801 
z"/>
<path fill="#29674E" opacity="1.000000" stroke="none" 
	d="
M5.428217,2.887031 
	C6.038145,2.939301 6.334226,2.980194 7.071702,3.104831 
	C6.209865,4.356318 4.906632,5.524062 3.102859,6.853783 
	C2.602317,7.015759 2.213626,7.008667 2.213626,7.008667 
	C2.201799,6.578353 2.189971,6.148039 2.172771,5.393277 
	C3.149723,4.337771 4.132047,3.606713 5.428217,2.887031 
z"/>
<path fill="#246141" opacity="1.000000" stroke="none" 
	d="
M2.118357,7.327159 
	C2.213626,7.008667 2.602317,7.015759 2.796467,7.006298 
	C3.000620,8.394894 3.010623,9.792952 3.031582,11.929477 
	C3.092148,13.107821 3.141758,13.547698 3.191369,13.987575 
	C3.140609,14.743894 3.089849,15.500214 3.040916,16.878220 
	C3.087040,17.664700 3.131338,17.829491 3.175634,17.994284 
	C3.130217,19.390270 3.084800,20.786259 3.020291,22.918982 
	C2.939079,24.093550 2.876959,24.531382 2.625231,24.967209 
	C2.435623,24.965202 2.056746,24.948664 2.056746,24.948664 
	C2.045174,24.498106 2.033601,24.047546 1.974676,23.261574 
	C1.945896,19.900896 1.964468,16.875629 1.926975,13.396427 
	C1.906224,11.877851 1.941538,10.813210 1.909944,9.354307 
	C1.903054,8.521913 1.963071,8.083781 2.118357,7.327159 
z"/>
<path fill="#337C5A" opacity="1.000000" stroke="none" 
	d="
M2.034453,25.416557 
	C2.056746,24.948664 2.435623,24.965202 2.701382,25.391983 
	C3.037136,27.539145 3.107131,29.259525 3.177125,30.979908 
	C3.126363,32.046253 3.075601,33.112598 3.026231,34.954353 
	C2.967011,36.498447 2.906400,37.267132 2.633666,38.026550 
	C2.421542,38.017281 1.996957,38.009731 1.996957,38.009731 
	C1.996957,38.009731 1.953906,38.080582 1.912259,38.089745 
	C1.917795,34.027424 1.964978,29.955938 2.034453,25.416557 
z"/>
<path fill="#BEE8CE" opacity="1.000000" stroke="none" 
	d="
M66.724327,52.704819 
	C66.496346,52.442997 66.434532,51.859688 66.564667,51.121529 
	C66.801247,51.438900 66.845871,51.911114 66.724327,52.704819 
z"/>
<path fill="#236041" opacity="1.000000" stroke="none" 
	d="
M1.990751,38.416290 
	C1.996957,38.009731 2.421542,38.017281 2.711892,38.445000 
	C3.063478,40.575111 3.124713,42.277496 3.185949,43.979885 
	C3.125359,45.367123 3.064770,46.754360 3.027799,48.558266 
	C3.051417,48.974934 2.999665,48.962471 2.776581,48.961361 
	C2.553496,48.960251 2.155242,48.940865 2.155242,48.940865 
	C2.097139,48.216122 2.039036,47.491383 1.914954,46.407692 
	C1.884265,44.987736 1.919554,43.926735 1.891186,42.472679 
	C1.879867,40.994034 1.932206,39.908440 1.990751,38.416290 
z"/>
<path fill="#5A8670" opacity="1.000000" stroke="none" 
	d="
M2.097638,49.313869 
	C2.155242,48.940865 2.553496,48.960251 2.752473,48.972641 
	C2.975229,49.670261 2.999007,50.355492 3.058291,51.378960 
	C2.937289,51.774857 2.780782,51.832520 2.375518,51.916431 
	C2.097852,51.190746 2.068943,50.438808 2.097638,49.313869 
z"/>
<path fill="#15683E" opacity="1.000000" stroke="none" 
	d="
M29.090565,58.630157 
	C28.455935,59.143005 27.949730,59.448952 27.165188,59.856339 
	C26.605684,59.544994 26.324516,59.132217 26.023304,58.456238 
	C26.947830,54.543873 27.892403,50.894714 28.897074,47.013382 
	C26.653185,46.138256 25.229185,45.582890 23.410721,44.930359 
	C28.791405,43.147835 29.976639,43.903954 29.980404,49.455307 
	C29.982149,52.027424 29.780006,54.599670 29.823540,57.491455 
	C29.695055,57.979069 29.442457,58.183136 29.090565,58.630157 
z"/>
<path fill="#ECFEF6" opacity="1.000000" stroke="none" 
	d="
M3.418640,43.783073 
	C3.124713,42.277496 3.063478,40.575111 2.924016,38.454269 
	C2.906400,37.267132 2.967011,36.498447 3.096296,35.349758 
	C3.578932,34.722382 3.992894,34.475010 4.624540,34.122814 
	C5.130358,36.069031 5.418491,38.120068 5.872547,40.528736 
	C5.242757,41.786331 4.447045,42.686298 3.418640,43.783073 
z"/>
<path fill="#15683E" opacity="1.000000" stroke="none" 
	d="
M16.124800,44.462719 
	C17.163071,44.223278 18.371264,44.314522 19.778502,44.625412 
	C18.749939,44.827843 17.522329,44.810623 16.124800,44.462719 
z"/>
<path fill="#15683E" opacity="1.000000" stroke="none" 
	d="
M20.967678,45.310913 
	C21.081633,45.037914 21.283621,45.025555 21.789145,45.024216 
	C21.747025,45.214008 21.401369,45.392780 20.967678,45.310913 
z"/>
<path fill="#047138" opacity="1.000000" stroke="none" 
	d="
M59.644672,59.341618 
	C59.644672,59.341618 59.916718,59.318192 60.055363,59.319138 
	C56.107681,59.816517 52.011284,60.741753 47.938869,60.646080 
	C45.554665,60.590065 42.136818,62.046902 40.257305,57.855614 
	C39.190498,58.255520 38.578701,59.144386 37.966904,60.033257 
	C37.966904,60.033257 38.028004,60.022583 37.624928,59.689125 
	C36.900112,59.451557 36.578369,59.547443 36.198593,59.514122 
	C36.085316,59.105122 36.044353,58.822815 36.219776,58.260399 
	C36.422153,57.530018 36.422432,57.077236 36.847210,56.578983 
	C37.845650,55.532131 38.799076,54.573414 38.917416,53.520813 
	C39.195019,51.051609 39.072968,48.537472 39.394012,45.927006 
	C39.817707,45.232788 39.960079,44.653088 40.056721,44.043053 
	C40.010994,44.012718 40.075863,44.101246 40.442822,44.058075 
	C42.853439,44.054272 44.897095,44.093639 46.940754,44.133003 
	C47.885818,48.926224 48.830883,53.719440 49.875523,59.017689 
	C51.975048,59.017689 54.543430,59.017689 57.802711,59.292191 
	C58.877296,59.491669 59.260986,59.416641 59.644672,59.341618 
z"/>
<path fill="#C6F7DB" opacity="1.000000" stroke="none" 
	d="
M38.328682,60.052361 
	C38.578701,59.144386 39.190498,58.255520 39.964836,57.676521 
	C39.648403,58.681412 39.169434,59.376442 38.328682,60.052361 
z"/>
<path fill="#C6F7DB" opacity="1.000000" stroke="none" 
	d="
M36.256626,59.643326 
	C36.578369,59.547443 36.900112,59.451557 37.624477,59.658119 
	C38.072132,60.158657 38.117161,60.356747 38.361034,60.785717 
	C38.302788,61.049480 38.045692,61.082363 37.212521,60.730110 
	C36.509834,60.111088 36.383232,59.877205 36.256626,59.643326 
z"/>
<path fill="#1B653A" opacity="1.000000" stroke="none" 
	d="
M36.198593,59.514122 
	C36.383232,59.877205 36.509834,60.111088 36.825188,60.696552 
	C37.013939,61.048130 37.060486,61.008602 36.753227,60.922829 
	C36.247303,60.876873 36.048641,60.916695 35.849976,60.956520 
	C35.849976,60.956520 35.466820,60.942177 35.275623,60.955120 
	C35.084427,60.968063 34.587193,60.963860 34.340195,60.935570 
	C34.131546,60.169319 34.169891,59.431362 34.128674,58.330467 
	C34.049107,57.967533 34.023129,58.018116 34.326618,58.161011 
	C35.092632,58.381939 35.555153,58.459969 36.017677,58.537998 
	C36.044353,58.822815 36.085316,59.105122 36.198593,59.514122 
z"/>
<path fill="#C6F7DB" opacity="1.000000" stroke="none" 
	d="
M35.916168,61.222790 
	C36.048641,60.916695 36.247303,60.876873 36.744652,60.893524 
	C36.689682,61.129684 36.336018,61.309372 35.916168,61.222790 
z"/>
<path fill="#F8FEFB" opacity="1.000000" stroke="none" 
	d="
M39.112686,46.041523 
	C39.072968,48.537472 39.195019,51.051609 38.917416,53.520813 
	C38.799076,54.573414 37.845650,55.532131 36.515297,56.349945 
	C35.233559,56.072601 34.708241,55.978825 34.182919,55.885048 
	C34.113548,52.553951 34.044182,49.222862 33.942741,45.174004 
	C33.621868,44.263908 33.333069,44.071579 33.044270,43.879253 
	C33.044270,43.879253 32.988384,43.419960 32.989792,42.739418 
	C33.026947,34.713264 33.062698,27.367655 33.098450,20.022045 
	C33.098450,20.022045 33.024387,20.012388 33.408836,20.011536 
	C35.193871,20.289604 36.594460,20.568527 37.995049,20.847450 
	C39.780502,21.855999 41.565956,22.864548 43.679726,24.381496 
	C44.338917,26.260302 44.669792,27.630707 44.589508,29.000813 
	C43.082142,29.015083 41.985939,29.029654 40.495171,29.020760 
	C39.416542,30.291868 38.732483,31.586439 38.014324,33.209251 
	C37.682522,37.256382 38.017441,40.849766 40.075863,44.101246 
	C40.075863,44.101246 40.010994,44.012718 39.752014,44.053116 
	C39.366253,44.742851 39.239471,45.392189 39.112686,46.041523 
z"/>
<path fill="#EFFFF7" opacity="1.000000" stroke="none" 
	d="
M45.000668,29.001112 
	C44.669792,27.630707 44.338917,26.260302 44.000450,24.533720 
	C46.927883,25.891417 49.862907,27.605291 52.806808,29.665386 
	C52.001060,30.171324 51.186440,30.331038 49.835442,30.710163 
	C47.866264,30.286751 46.433464,29.643932 45.000668,29.001112 
z"/>
<path fill="#EEFFF9" opacity="1.000000" stroke="none" 
	d="
M31.415302,8.905999 
	C30.995470,7.854168 30.997398,6.875564 31.424656,5.453111 
	C33.581055,4.946581 35.312130,4.883900 37.043205,4.821218 
	C37.043205,4.821218 36.931736,4.988588 36.941284,5.088681 
	C37.923862,6.518965 38.896893,7.849156 39.936684,9.509249 
	C37.281315,9.552509 34.559189,9.265867 31.415302,8.905999 
z"/>
<path fill="#106B3B" opacity="1.000000" stroke="none" 
	d="
M32.779209,20.295456 
	C33.062698,27.367655 33.026947,34.713264 32.914143,42.520798 
	C32.711380,35.511433 32.585674,28.040152 32.779209,20.295456 
z"/>
<path fill="#F3FEFA" opacity="1.000000" stroke="none" 
	d="
M61.994484,25.625116 
	C61.999084,26.000898 61.579937,25.998808 61.370369,25.996674 
	C59.489601,23.887503 57.818398,21.780466 56.012863,19.363289 
	C60.212379,18.853262 61.300705,21.854460 61.994484,25.625116 
z"/>
<path fill="#EFFFF7" opacity="1.000000" stroke="none" 
	d="
M53.914162,39.578861 
	C53.391243,37.496273 52.944153,34.988590 52.795616,32.220600 
	C53.392773,34.358120 53.691383,36.755943 53.914162,39.578861 
z"/>
<path fill="#106B3B" opacity="1.000000" stroke="none" 
	d="
M37.943771,20.496487 
	C36.594460,20.568527 35.193871,20.289604 33.419914,20.047197 
	C34.711773,16.191170 36.307293,17.763794 37.943771,20.496487 
z"/>
<path fill="#90B79F" opacity="1.000000" stroke="none" 
	d="
M34.140259,56.238663 
	C34.708241,55.978825 35.233559,56.072601 36.090797,56.395416 
	C36.422432,57.077236 36.422153,57.530018 36.219776,58.260399 
	C35.555153,58.459969 35.092632,58.381939 34.299202,58.153111 
	C34.011398,57.532299 34.054501,57.062290 34.140259,56.238663 
z"/>
<path fill="#ECFEF6" opacity="1.000000" stroke="none" 
	d="
M6.361926,32.777355 
	C6.114312,31.726255 6.235285,30.615318 6.591460,29.265209 
	C6.794613,30.256533 6.762563,31.487024 6.361926,32.777355 
z"/>
<path fill="#106B3B" opacity="1.000000" stroke="none" 
	d="
M33.108162,44.106155 
	C33.333069,44.071579 33.621868,44.263908 33.871101,44.722237 
	C33.538837,44.843189 33.319008,44.624798 33.108162,44.106155 
z"/>
<path fill="#E3FFF5" opacity="1.000000" stroke="none" 
	d="
M46.131889,4.183134 
	C49.122410,4.128829 52.112934,4.074524 55.547409,4.101519 
	C52.939911,4.458982 49.888462,4.735147 46.438095,4.795488 
	C46.039185,4.579666 46.131889,4.183134 46.131889,4.183134 
z"/>
<path fill="#85BF9E" opacity="1.000000" stroke="none" 
	d="
M45.825741,4.102818 
	C46.131889,4.183134 46.039185,4.579666 45.990959,4.777390 
	C45.455334,4.952646 44.967934,4.930181 44.143185,4.761909 
	C44.377087,4.418236 44.948338,4.220368 45.825741,4.102818 
z"/>
<path fill="#EEFFF9" opacity="1.000000" stroke="none" 
	d="
M41.110245,5.316915 
	C41.183041,5.132275 41.355114,5.091004 41.785576,5.110453 
	C41.765820,5.267542 41.487667,5.363913 41.110245,5.316915 
z"/>
<path fill="#ECFEF6" opacity="1.000000" stroke="none" 
	d="
M3.421399,30.689135 
	C3.107131,29.259525 3.037136,27.539145 2.890990,25.393988 
	C2.876959,24.531382 2.939079,24.093550 3.085670,23.333839 
	C3.335317,25.474096 3.500495,27.936228 3.421399,30.689135 
z"/>
<path fill="#20653F" opacity="1.000000" stroke="none" 
	d="
M37.026081,4.637878 
	C35.312130,4.883900 33.581055,4.946581 31.422979,5.086136 
	C30.554674,5.107485 30.113373,5.051961 29.346762,4.918334 
	C29.021454,4.840231 29.024412,4.496093 29.035683,4.325095 
	C30.078943,4.093705 31.110933,4.033312 32.528023,3.931677 
	C34.002357,3.934997 35.091587,3.979559 36.587711,4.055331 
	C36.994606,4.086541 37.008957,4.454537 37.026081,4.637878 
z"/>
<path fill="#ECFEF6" opacity="1.000000" stroke="none" 
	d="
M3.384787,13.831381 
	C3.141758,13.547698 3.092148,13.107821 3.111564,12.341217 
	C3.313128,12.568056 3.445667,13.121622 3.384787,13.831381 
z"/>
<path fill="#C9E4D2" opacity="1.000000" stroke="none" 
	d="
M9.067745,3.422690 
	C9.139562,3.205581 9.316031,3.134252 9.765663,3.146319 
	C9.750016,3.342635 9.461207,3.455553 9.067745,3.422690 
z"/>
<path fill="#ECFEF6" opacity="1.000000" stroke="none" 
	d="
M3.317398,17.899164 
	C3.131338,17.829491 3.087040,17.664700 3.109554,17.252769 
	C3.270630,17.271769 3.364896,17.537907 3.317398,17.899164 
z"/>
<path fill="#EEFFF8" opacity="1.000000" stroke="none" 
	d="
M44.589508,29.000813 
	C46.433464,29.643932 47.866264,30.286751 49.647141,30.964756 
	C49.011166,35.130661 48.027111,39.261383 46.991905,43.762558 
	C44.897095,44.093639 42.853439,44.054272 40.442822,44.058075 
	C38.017441,40.849766 37.682522,37.256382 38.354370,33.256924 
	C41.966381,33.049320 41.468613,31.069063 40.889732,29.044224 
	C41.985939,29.029654 43.082142,29.015083 44.589508,29.000813 
z"/>
<path fill="#106B3E" opacity="1.000000" stroke="none" 
	d="
M59.399696,59.192841 
	C59.260986,59.416641 58.877296,59.491669 58.257145,59.366554 
	C58.398693,59.125633 58.776711,59.084846 59.399696,59.192841 
z"/>
<path fill="#EEFFF8" opacity="1.000000" stroke="none" 
	d="
M39.394012,45.927006 
	C39.239471,45.392189 39.366253,44.742851 39.797741,44.083450 
	C39.960079,44.653088 39.817707,45.232788 39.394012,45.927006 
z"/>
<path fill="#16693F" opacity="1.000000" stroke="none" 
	d="
M40.495171,29.020760 
	C41.468613,31.069063 41.966381,33.049320 38.388466,32.928680 
	C38.732483,31.586439 39.416542,30.291868 40.495171,29.020760 
z"/>
</svg>